<svg width="310" height="125" viewBox="0 0 310 125" fill="none" xmlns="http://www.w3.org/2000/svg">
<g clip-path="url(#clip0_369_44)">
<rect width="310" height="125" fill="#344497"/>
<g opacity="0.75">
<g opacity="0.25">
<rect x="-35" y="80" width="140" height="140" rx="70" fill="#FFFDFD" fill-opacity="0.5"/>
<rect x="-35" y="80" width="140" height="140" rx="70" fill="#FFFDFD" fill-opacity="0.5"/>
</g>
<g opacity="0.2">
<rect x="-55" y="60" width="180" height="180" rx="90" fill="#FFFDFD" fill-opacity="0.5"/>
<rect x="-55" y="60" width="180" height="180" rx="90" fill="#FFFDFD" fill-opacity="0.5"/>
</g>
<g opacity="0.15">
<rect x="-75" y="40" width="220" height="220" rx="110" fill="#FFFDFD" fill-opacity="0.5"/>
<rect x="-75" y="40" width="220" height="220" rx="110" fill="#FFFDFD" fill-opacity="0.5"/>
</g>
<g opacity="0.1">
<rect x="-95" y="20" width="260" height="260" rx="130" fill="#FFFDFD" fill-opacity="0.5"/>
<rect x="-95" y="20" width="260" height="260" rx="130" fill="#FFFDFD" fill-opacity="0.5"/>
</g>
<g opacity="0.05">
<rect x="-115" width="300" height="300" rx="150" fill="#FFFDFD" fill-opacity="0.5"/>
<rect x="-115" width="300" height="300" rx="150" fill="#FFFDFD" fill-opacity="0.5"/>
</g>
</g>
<rect x="264" y="12" width="68" height="68" rx="34" fill="url(#paint0_linear_369_44)"/>
</g>
<defs>
<linearGradient id="paint0_linear_369_44" x1="275.547" y1="0.452829" x2="315.321" y2="71.0189" gradientUnits="userSpaceOnUse">
<stop offset="-0.0001" stop-color="#FFFDFD" stop-opacity="0.36"/>
<stop stop-color="#6570AF" stop-opacity="0.846881"/>
<stop offset="0.95913" stop-color="#344497" stop-opacity="0.51"/>
</linearGradient>
<clipPath id="clip0_369_44">
<rect width="310" height="125" fill="white"/>
</clipPath>
</defs>
</svg>
