<svg width="1112" height="125" viewBox="0 0 1112 125" fill="none" xmlns="http://www.w3.org/2000/svg">
<mask id="path-1-outside-1_218_7" maskUnits="userSpaceOnUse" x="194" y="10" width="724" height="78" fill="black">
<rect fill="white" x="194" y="10" width="724" height="78"/>
<path d="M195.042 87V11.3636H244.235V22.8494H208.744V43.3835H241.687V54.8693H208.744V75.5142H244.531V87H195.042ZM292.007 43.679V54.6847H257.956V43.679H292.007ZM306.659 87V11.3636H320.361V75.5142H353.674V87H306.659ZM365.566 87V11.3636H414.759V22.8494H379.267V43.3835H412.211V54.8693H379.267V75.5142H415.054V87H365.566ZM438.451 87H423.826L450.453 11.3636H467.368L494.033 87H479.408L459.206 26.875H458.615L438.451 87ZM438.931 57.3438H478.817V68.3494H438.931V57.3438ZM503.995 87V11.3636H532.359C538.17 11.3636 543.045 12.3731 546.984 14.392C550.948 16.411 553.94 19.2424 555.958 22.8864C558.002 26.5057 559.024 30.7282 559.024 35.554C559.024 40.4044 557.99 44.6146 555.922 48.1847C553.878 51.7301 550.862 54.4754 546.873 56.4205C542.885 58.3409 537.985 59.3011 532.174 59.3011H511.973V47.9261H530.328C533.725 47.9261 536.508 47.4583 538.674 46.5227C540.841 45.5625 542.441 44.1714 543.475 42.3494C544.534 40.5028 545.064 38.2377 545.064 35.554C545.064 32.8703 544.534 30.5805 543.475 28.6847C542.417 26.7642 540.804 25.3116 538.637 24.3267C536.471 23.3172 533.676 22.8125 530.254 22.8125H517.697V87H503.995ZM543.069 52.7273L561.794 87H546.504L528.112 52.7273H543.069ZM633.792 11.3636V87H621.605L585.966 35.4801H585.338V87H571.636V11.3636H583.897L619.5 62.9205H620.164V11.3636H633.792ZM648.722 87V11.3636H697.915V22.8494H662.424V43.3835H695.367V54.8693H662.424V75.5142H698.211V87H648.722ZM721.607 87H706.982L733.61 11.3636H750.525L777.189 87H762.564L742.363 26.875H741.772L721.607 87ZM722.087 57.3438H761.973V68.3494H722.087V57.3438ZM787.152 87V11.3636H815.515C821.326 11.3636 826.201 12.3731 830.14 14.392C834.104 16.411 837.096 19.2424 839.115 22.8864C841.158 26.5057 842.18 30.7282 842.18 35.554C842.18 40.4044 841.146 44.6146 839.078 48.1847C837.034 51.7301 834.018 54.4754 830.029 56.4205C826.041 58.3409 821.141 59.3011 815.331 59.3011H795.129V47.9261H813.484C816.882 47.9261 819.664 47.4583 821.831 46.5227C823.997 45.5625 825.598 44.1714 826.632 42.3494C827.69 40.5028 828.22 38.2377 828.22 35.554C828.22 32.8703 827.69 30.5805 826.632 28.6847C825.573 26.7642 823.96 25.3116 821.794 24.3267C819.627 23.3172 816.833 22.8125 813.41 22.8125H800.853V87H787.152ZM826.225 52.7273L844.95 87H829.66L811.268 52.7273H826.225ZM916.949 11.3636V87H904.761L869.122 35.4801H868.494V87H854.792V11.3636H867.054L902.656 62.9205H903.321V11.3636H916.949Z"/>
</mask>
<path d="M195.042 87H194.042V88H195.042V87ZM195.042 11.3636V10.3636H194.042V11.3636H195.042ZM244.235 11.3636H245.235V10.3636H244.235V11.3636ZM244.235 22.8494V23.8494H245.235V22.8494H244.235ZM208.744 22.8494V21.8494H207.744V22.8494H208.744ZM208.744 43.3835H207.744V44.3835H208.744V43.3835ZM241.687 43.3835H242.687V42.3835H241.687V43.3835ZM241.687 54.8693V55.8693H242.687V54.8693H241.687ZM208.744 54.8693V53.8693H207.744V54.8693H208.744ZM208.744 75.5142H207.744V76.5142H208.744V75.5142ZM244.531 75.5142H245.531V74.5142H244.531V75.5142ZM244.531 87V88H245.531V87H244.531ZM196.042 87V11.3636H194.042V87H196.042ZM195.042 12.3636H244.235V10.3636H195.042V12.3636ZM243.235 11.3636V22.8494H245.235V11.3636H243.235ZM244.235 21.8494H208.744V23.8494H244.235V21.8494ZM207.744 22.8494V43.3835H209.744V22.8494H207.744ZM208.744 44.3835H241.687V42.3835H208.744V44.3835ZM240.687 43.3835V54.8693H242.687V43.3835H240.687ZM241.687 53.8693H208.744V55.8693H241.687V53.8693ZM207.744 54.8693V75.5142H209.744V54.8693H207.744ZM208.744 76.5142H244.531V74.5142H208.744V76.5142ZM243.531 75.5142V87H245.531V75.5142H243.531ZM244.531 86H195.042V88H244.531V86ZM292.007 43.679H293.007V42.679H292.007V43.679ZM292.007 54.6847V55.6847H293.007V54.6847H292.007ZM257.956 54.6847H256.956V55.6847H257.956V54.6847ZM257.956 43.679V42.679H256.956V43.679H257.956ZM291.007 43.679V54.6847H293.007V43.679H291.007ZM292.007 53.6847H257.956V55.6847H292.007V53.6847ZM258.956 54.6847V43.679H256.956V54.6847H258.956ZM257.956 44.679H292.007V42.679H257.956V44.679ZM306.659 87H305.659V88H306.659V87ZM306.659 11.3636V10.3636H305.659V11.3636H306.659ZM320.361 11.3636H321.361V10.3636H320.361V11.3636ZM320.361 75.5142H319.361V76.5142H320.361V75.5142ZM353.674 75.5142H354.674V74.5142H353.674V75.5142ZM353.674 87V88H354.674V87H353.674ZM307.659 87V11.3636H305.659V87H307.659ZM306.659 12.3636H320.361V10.3636H306.659V12.3636ZM319.361 11.3636V75.5142H321.361V11.3636H319.361ZM320.361 76.5142H353.674V74.5142H320.361V76.5142ZM352.674 75.5142V87H354.674V75.5142H352.674ZM353.674 86H306.659V88H353.674V86ZM365.566 87H364.566V88H365.566V87ZM365.566 11.3636V10.3636H364.566V11.3636H365.566ZM414.759 11.3636H415.759V10.3636H414.759V11.3636ZM414.759 22.8494V23.8494H415.759V22.8494H414.759ZM379.267 22.8494V21.8494H378.267V22.8494H379.267ZM379.267 43.3835H378.267V44.3835H379.267V43.3835ZM412.211 43.3835H413.211V42.3835H412.211V43.3835ZM412.211 54.8693V55.8693H413.211V54.8693H412.211ZM379.267 54.8693V53.8693H378.267V54.8693H379.267ZM379.267 75.5142H378.267V76.5142H379.267V75.5142ZM415.054 75.5142H416.054V74.5142H415.054V75.5142ZM415.054 87V88H416.054V87H415.054ZM366.566 87V11.3636H364.566V87H366.566ZM365.566 12.3636H414.759V10.3636H365.566V12.3636ZM413.759 11.3636V22.8494H415.759V11.3636H413.759ZM414.759 21.8494H379.267V23.8494H414.759V21.8494ZM378.267 22.8494V43.3835H380.267V22.8494H378.267ZM379.267 44.3835H412.211V42.3835H379.267V44.3835ZM411.211 43.3835V54.8693H413.211V43.3835H411.211ZM412.211 53.8693H379.267V55.8693H412.211V53.8693ZM378.267 54.8693V75.5142H380.267V54.8693H378.267ZM379.267 76.5142H415.054V74.5142H379.267V76.5142ZM414.054 75.5142V87H416.054V75.5142H414.054ZM415.054 86H365.566V88H415.054V86ZM438.451 87V88H439.17L439.399 87.318L438.451 87ZM423.826 87L422.882 86.6679L422.413 88H423.826V87ZM450.453 11.3636V10.3636H449.745L449.51 11.0316L450.453 11.3636ZM467.368 11.3636L468.311 11.0312L468.076 10.3636H467.368V11.3636ZM494.033 87V88H495.446L494.976 86.6675L494.033 87ZM479.408 87L478.46 87.3185L478.689 88H479.408V87ZM459.206 26.875L460.154 26.5565L459.925 25.875H459.206V26.875ZM458.615 26.875V25.875H457.896L457.667 26.557L458.615 26.875ZM438.931 57.3438V56.3438H437.931V57.3438H438.931ZM478.817 57.3438H479.817V56.3438H478.817V57.3438ZM478.817 68.3494V69.3494H479.817V68.3494H478.817ZM438.931 68.3494H437.931V69.3494H438.931V68.3494ZM438.451 86H423.826V88H438.451V86ZM424.769 87.3321L451.397 11.6957L449.51 11.0316L422.882 86.6679L424.769 87.3321ZM450.453 12.3636H467.368V10.3636H450.453V12.3636ZM466.425 11.6961L493.09 87.3325L494.976 86.6675L468.311 11.0312L466.425 11.6961ZM494.033 86H479.408V88H494.033V86ZM480.356 86.6815L460.154 26.5565L458.258 27.1935L478.46 87.3185L480.356 86.6815ZM459.206 25.875H458.615V27.875H459.206V25.875ZM457.667 26.557L437.503 86.682L439.399 87.318L459.564 27.193L457.667 26.557ZM438.931 58.3438H478.817V56.3438H438.931V58.3438ZM477.817 57.3438V68.3494H479.817V57.3438H477.817ZM478.817 67.3494H438.931V69.3494H478.817V67.3494ZM439.931 68.3494V57.3438H437.931V68.3494H439.931ZM503.995 87H502.995V88H503.995V87ZM503.995 11.3636V10.3636H502.995V11.3636H503.995ZM546.984 14.392L546.528 15.282L546.53 15.2831L546.984 14.392ZM555.958 22.8864L555.084 23.371L555.088 23.378L555.958 22.8864ZM555.922 48.1847L555.056 47.6834L555.055 47.6853L555.922 48.1847ZM546.873 56.4205L547.307 57.3215L547.312 57.3193L546.873 56.4205ZM511.973 59.3011H510.973V60.3011H511.973V59.3011ZM511.973 47.9261V46.9261H510.973V47.9261H511.973ZM538.674 46.5227L539.071 47.4408L539.08 47.437L538.674 46.5227ZM543.476 42.3494L542.608 41.852L542.606 41.8558L543.476 42.3494ZM543.476 28.6847L542.6 29.1674L542.602 29.1722L543.476 28.6847ZM538.637 24.3267L538.215 25.2332L538.224 25.2371L538.637 24.3267ZM517.697 22.8125V21.8125H516.697V22.8125H517.697ZM517.697 87V88H518.697V87H517.697ZM543.069 52.7273L543.947 52.2478L543.662 51.7273H543.069V52.7273ZM561.794 87V88H563.48L562.671 86.5206L561.794 87ZM546.504 87L545.623 87.4729L545.906 88H546.504V87ZM528.112 52.7273V51.7273H526.44L527.231 53.2001L528.112 52.7273ZM504.995 87V11.3636H502.995V87H504.995ZM503.995 12.3636H532.359V10.3636H503.995V12.3636ZM532.359 12.3636C538.059 12.3636 542.767 13.3544 546.528 15.282L547.44 13.5021C543.322 11.3918 538.281 10.3636 532.359 10.3636V12.3636ZM546.53 15.2831C550.329 17.218 553.168 19.9135 555.084 23.371L556.833 22.4017C554.711 18.5713 551.567 15.6039 547.438 13.501L546.53 15.2831ZM555.088 23.378C557.034 26.8247 558.024 30.8725 558.024 35.554H560.024C560.024 30.5839 558.97 26.1867 556.829 22.3947L555.088 23.378ZM558.024 35.554C558.024 40.2595 557.022 44.2905 555.056 47.6834L556.787 48.6859C558.958 44.9387 560.024 40.5492 560.024 35.554H558.024ZM555.055 47.6853C553.12 51.0432 550.26 53.6563 546.435 55.5216L547.312 57.3193C551.464 55.2945 554.636 52.417 556.788 48.684L555.055 47.6853ZM546.439 55.5195C542.622 57.3577 537.88 58.3011 532.174 58.3011V60.3011C538.09 60.3011 543.148 59.3241 547.307 57.3215L546.439 55.5195ZM532.174 58.3011H511.973V60.3011H532.174V58.3011ZM512.973 59.3011V47.9261H510.973V59.3011H512.973ZM511.973 48.9261H530.328V46.9261H511.973V48.9261ZM530.328 48.9261C533.807 48.9261 536.737 48.4487 539.071 47.4408L538.278 45.6047C536.279 46.4679 533.644 46.9261 530.328 46.9261V48.9261ZM539.08 47.437C541.415 46.4018 543.192 44.8754 544.345 42.843L542.606 41.8558C541.691 43.4674 540.267 44.7232 538.269 45.6085L539.08 47.437ZM544.343 42.8468C545.508 40.8142 546.064 38.3674 546.064 35.554H544.064C544.064 38.108 543.56 40.1915 542.608 41.852L544.343 42.8468ZM546.064 35.554C546.064 32.7394 545.508 30.2732 544.349 28.1971L542.602 29.1722C543.56 30.8877 544.064 33.0011 544.064 35.554H546.064ZM544.351 28.2019C543.18 26.0765 541.396 24.4822 539.051 23.4163L538.224 25.2371C540.212 26.1409 541.654 27.4519 542.6 29.1674L544.351 28.2019ZM539.06 23.4203C536.716 22.3285 533.764 21.8125 530.254 21.8125V23.8125C533.589 23.8125 536.225 24.306 538.215 25.2331L539.06 23.4203ZM530.254 21.8125H517.697V23.8125H530.254V21.8125ZM516.697 22.8125V87H518.697V22.8125H516.697ZM517.697 86H503.995V88H517.697V86ZM542.192 53.2067L560.916 87.4794L562.671 86.5206L543.947 52.2478L542.192 53.2067ZM561.794 86H546.504V88H561.794V86ZM547.385 86.5271L528.993 52.2544L527.231 53.2001L545.623 87.4729L547.385 86.5271ZM528.112 53.7273H543.069V51.7273H528.112V53.7273ZM633.792 11.3636H634.792V10.3636H633.792V11.3636ZM633.792 87V88H634.792V87H633.792ZM621.605 87L620.782 87.5689L621.081 88H621.605V87ZM585.966 35.4801L586.788 34.9112L586.49 34.4801H585.966V35.4801ZM585.338 35.4801V34.4801H584.338V35.4801H585.338ZM585.338 87V88H586.338V87H585.338ZM571.636 87H570.636V88H571.636V87ZM571.636 11.3636V10.3636H570.636V11.3636H571.636ZM583.897 11.3636L584.72 10.7954L584.422 10.3636H583.897V11.3636ZM619.5 62.9205L618.677 63.4887L618.975 63.9205H619.5V62.9205ZM620.164 62.9205V63.9205H621.164V62.9205H620.164ZM620.164 11.3636V10.3636H619.164V11.3636H620.164ZM632.792 11.3636V87H634.792V11.3636H632.792ZM633.792 86H621.605V88H633.792V86ZM622.427 86.4311L586.788 34.9112L585.143 36.049L620.782 87.5689L622.427 86.4311ZM585.966 34.4801H585.338V36.4801H585.966V34.4801ZM584.338 35.4801V87H586.338V35.4801H584.338ZM585.338 86H571.636V88H585.338V86ZM572.636 87V11.3636H570.636V87H572.636ZM571.636 12.3636H583.897V10.3636H571.636V12.3636ZM583.075 11.9319L618.677 63.4887L620.323 62.3522L584.72 10.7954L583.075 11.9319ZM619.5 63.9205H620.164V61.9205H619.5V63.9205ZM621.164 62.9205V11.3636H619.164V62.9205H621.164ZM620.164 12.3636H633.792V10.3636H620.164V12.3636ZM648.722 87H647.722V88H648.722V87ZM648.722 11.3636V10.3636H647.722V11.3636H648.722ZM697.915 11.3636H698.915V10.3636H697.915V11.3636ZM697.915 22.8494V23.8494H698.915V22.8494H697.915ZM662.424 22.8494V21.8494H661.424V22.8494H662.424ZM662.424 43.3835H661.424V44.3835H662.424V43.3835ZM695.367 43.3835H696.367V42.3835H695.367V43.3835ZM695.367 54.8693V55.8693H696.367V54.8693H695.367ZM662.424 54.8693V53.8693H661.424V54.8693H662.424ZM662.424 75.5142H661.424V76.5142H662.424V75.5142ZM698.211 75.5142H699.211V74.5142H698.211V75.5142ZM698.211 87V88H699.211V87H698.211ZM649.722 87V11.3636H647.722V87H649.722ZM648.722 12.3636H697.915V10.3636H648.722V12.3636ZM696.915 11.3636V22.8494H698.915V11.3636H696.915ZM697.915 21.8494H662.424V23.8494H697.915V21.8494ZM661.424 22.8494V43.3835H663.424V22.8494H661.424ZM662.424 44.3835H695.367V42.3835H662.424V44.3835ZM694.367 43.3835V54.8693H696.367V43.3835H694.367ZM695.367 53.8693H662.424V55.8693H695.367V53.8693ZM661.424 54.8693V75.5142H663.424V54.8693H661.424ZM662.424 76.5142H698.211V74.5142H662.424V76.5142ZM697.211 75.5142V87H699.211V75.5142H697.211ZM698.211 86H648.722V88H698.211V86ZM721.607 87V88H722.326L722.555 87.318L721.607 87ZM706.982 87L706.039 86.6679L705.57 88H706.982V87ZM733.61 11.3636V10.3636H732.902L732.667 11.0316L733.61 11.3636ZM750.524 11.3636L751.468 11.0312L751.232 10.3636H750.524V11.3636ZM777.189 87V88H778.602L778.132 86.6675L777.189 87ZM762.564 87L761.616 87.3185L761.845 88H762.564V87ZM742.363 26.875L743.31 26.5565L743.082 25.875H742.363V26.875ZM741.772 26.875V25.875H741.052L740.824 26.557L741.772 26.875ZM722.087 57.3438V56.3438H721.087V57.3438H722.087ZM761.973 57.3438H762.973V56.3438H761.973V57.3438ZM761.973 68.3494V69.3494H762.973V68.3494H761.973ZM722.087 68.3494H721.087V69.3494H722.087V68.3494ZM721.607 86H706.982V88H721.607V86ZM707.925 87.3321L734.553 11.6957L732.667 11.0316L706.039 86.6679L707.925 87.3321ZM733.61 12.3636H750.524V10.3636H733.61V12.3636ZM749.581 11.6961L776.246 87.3325L778.132 86.6675L751.468 11.0312L749.581 11.6961ZM777.189 86H762.564V88H777.189V86ZM763.512 86.6815L743.31 26.5565L741.415 27.1935L761.616 87.3185L763.512 86.6815ZM742.363 25.875H741.772V27.875H742.363V25.875ZM740.824 26.557L720.659 86.682L722.555 87.318L742.72 27.193L740.824 26.557ZM722.087 58.3438H761.973V56.3438H722.087V58.3438ZM760.973 57.3438V68.3494H762.973V57.3438H760.973ZM761.973 67.3494H722.087V69.3494H761.973V67.3494ZM723.087 68.3494V57.3438H721.087V68.3494H723.087ZM787.152 87H786.152V88H787.152V87ZM787.152 11.3636V10.3636H786.152V11.3636H787.152ZM830.14 14.392L829.684 15.282L829.686 15.2831L830.14 14.392ZM839.115 22.8864L838.24 23.371L838.244 23.378L839.115 22.8864ZM839.078 48.1847L838.212 47.6834L838.211 47.6853L839.078 48.1847ZM830.029 56.4205L830.463 57.3215L830.468 57.3193L830.029 56.4205ZM795.129 59.3011H794.129V60.3011H795.129V59.3011ZM795.129 47.9261V46.9261H794.129V47.9261H795.129ZM821.831 46.5227L822.227 47.4408L822.236 47.437L821.831 46.5227ZM826.632 42.3494L825.764 41.852L825.762 41.8558L826.632 42.3494ZM826.632 28.6847L825.756 29.1674L825.759 29.1722L826.632 28.6847ZM821.794 24.3267L821.371 25.2332L821.38 25.2371L821.794 24.3267ZM800.853 22.8125V21.8125H799.853V22.8125H800.853ZM800.853 87V88H801.853V87H800.853ZM826.226 52.7273L827.103 52.2478L826.819 51.7273H826.226V52.7273ZM844.95 87V88H846.636L845.828 86.5206L844.95 87ZM829.66 87L828.779 87.4729L829.062 88H829.66V87ZM811.268 52.7273V51.7273H809.597L810.387 53.2001L811.268 52.7273ZM788.152 87V11.3636H786.152V87H788.152ZM787.152 12.3636H815.515V10.3636H787.152V12.3636ZM815.515 12.3636C821.215 12.3636 825.923 13.3544 829.684 15.282L830.596 13.5021C826.479 11.3918 821.437 10.3636 815.515 10.3636V12.3636ZM829.686 15.2831C833.485 17.218 836.324 19.9135 838.24 23.371L839.989 22.4017C837.867 18.5713 834.723 15.6039 830.594 13.501L829.686 15.2831ZM838.244 23.378C840.19 26.8247 841.18 30.8725 841.18 35.554H843.18C843.18 30.5839 842.127 26.1867 839.985 22.3947L838.244 23.378ZM841.18 35.554C841.18 40.2595 840.178 44.2905 838.212 47.6834L839.943 48.6859C842.114 44.9387 843.18 40.5492 843.18 35.554H841.18ZM838.211 47.6853C836.276 51.0432 833.416 53.6563 829.591 55.5216L830.468 57.3193C834.62 55.2945 837.792 52.417 839.944 48.684L838.211 47.6853ZM829.596 55.5195C825.778 57.3577 821.036 58.3011 815.331 58.3011V60.3011C821.246 60.3011 826.304 59.3241 830.463 57.3215L829.596 55.5195ZM815.331 58.3011H795.129V60.3011H815.331V58.3011ZM796.129 59.3011V47.9261H794.129V59.3011H796.129ZM795.129 48.9261H813.484V46.9261H795.129V48.9261ZM813.484 48.9261C816.963 48.9261 819.893 48.4487 822.227 47.4408L821.434 45.6047C819.435 46.4679 816.801 46.9261 813.484 46.9261V48.9261ZM822.236 47.437C824.571 46.4018 826.348 44.8754 827.501 42.843L825.762 41.8558C824.847 43.4674 823.423 44.7232 821.425 45.6085L822.236 47.437ZM827.499 42.8468C828.665 40.8142 829.22 38.3674 829.22 35.554H827.22C827.22 38.108 826.716 40.1915 825.764 41.852L827.499 42.8468ZM829.22 35.554C829.22 32.7394 828.664 30.2732 827.505 28.1971L825.759 29.1722C826.717 30.8877 827.22 33.0011 827.22 35.554H829.22ZM827.508 28.2019C826.336 26.0765 824.552 24.4822 822.207 23.4163L821.38 25.2371C823.368 26.1409 824.81 27.4519 825.756 29.1674L827.508 28.2019ZM822.216 23.4203C819.873 22.3285 816.92 21.8125 813.41 21.8125V23.8125C816.745 23.8125 819.381 24.306 821.371 25.2331L822.216 23.4203ZM813.41 21.8125H800.853V23.8125H813.41V21.8125ZM799.853 22.8125V87H801.853V22.8125H799.853ZM800.853 86H787.152V88H800.853V86ZM825.348 53.2067L844.072 87.4794L845.828 86.5206L827.103 52.2478L825.348 53.2067ZM844.95 86H829.66V88H844.95V86ZM830.541 86.5271L812.149 52.2544L810.387 53.2001L828.779 87.4729L830.541 86.5271ZM811.268 53.7273H826.226V51.7273H811.268V53.7273ZM916.948 11.3636H917.948V10.3636H916.948V11.3636ZM916.948 87V88H917.948V87H916.948ZM904.761 87L903.939 87.5689L904.237 88H904.761V87ZM869.122 35.4801L869.944 34.9112L869.646 34.4801H869.122V35.4801ZM868.494 35.4801V34.4801H867.494V35.4801H868.494ZM868.494 87V88H869.494V87H868.494ZM854.792 87H853.792V88H854.792V87ZM854.792 11.3636V10.3636H853.792V11.3636H854.792ZM867.054 11.3636L867.876 10.7954L867.578 10.3636H867.054V11.3636ZM902.656 62.9205L901.833 63.4887L902.131 63.9205H902.656V62.9205ZM903.321 62.9205V63.9205H904.321V62.9205H903.321ZM903.321 11.3636V10.3636H902.321V11.3636H903.321ZM915.948 11.3636V87H917.948V11.3636H915.948ZM916.948 86H904.761V88H916.948V86ZM905.583 86.4311L869.944 34.9112L868.299 36.049L903.939 87.5689L905.583 86.4311ZM869.122 34.4801H868.494V36.4801H869.122V34.4801ZM867.494 35.4801V87H869.494V35.4801H867.494ZM868.494 86H854.792V88H868.494V86ZM855.792 87V11.3636H853.792V87H855.792ZM854.792 12.3636H867.054V10.3636H854.792V12.3636ZM866.231 11.9319L901.833 63.4887L903.479 62.3522L867.876 10.7954L866.231 11.9319ZM902.656 63.9205H903.321V61.9205H902.656V63.9205ZM904.321 62.9205V11.3636H902.321V62.9205H904.321ZM903.321 12.3636H916.948V10.3636H903.321V12.3636Z" fill="black" mask="url(#path-1-outside-1_218_7)"/>
<path d="M380.851 79.5156H366.541C366.28 77.6643 365.746 76.0199 364.94 74.5824C364.134 73.1231 363.1 71.8816 361.837 70.858C360.573 69.8343 359.114 69.0502 357.459 68.5057C355.825 67.9612 354.05 67.6889 352.134 67.6889C348.67 67.6889 345.654 68.5492 343.084 70.2699C340.514 71.9687 338.521 74.4517 337.105 77.7188C335.689 80.964 334.982 84.9062 334.982 89.5455C334.982 94.3153 335.689 98.3229 337.105 101.568C338.543 104.813 340.546 107.264 343.116 108.919C345.687 110.574 348.66 111.402 352.036 111.402C353.93 111.402 355.684 111.152 357.295 110.651C358.929 110.15 360.377 109.42 361.641 108.462C362.904 107.482 363.949 106.295 364.777 104.901C365.626 103.507 366.214 101.917 366.541 100.131L380.851 100.196C380.481 103.267 379.555 106.229 378.074 109.082C376.615 111.914 374.643 114.451 372.161 116.695C369.699 118.916 366.759 120.68 363.339 121.987C359.942 123.272 356.098 123.915 351.807 123.915C345.839 123.915 340.503 122.564 335.798 119.864C331.116 117.163 327.413 113.253 324.69 108.135C321.99 103.017 320.639 96.8201 320.639 89.5455C320.639 82.2491 322.011 76.0417 324.756 70.9233C327.5 65.8049 331.224 61.9062 335.929 59.2273C340.634 56.5265 345.926 55.1761 351.807 55.1761C355.684 55.1761 359.277 55.7206 362.588 56.8097C365.92 57.8987 368.872 59.4886 371.442 61.5795C374.012 63.6487 376.103 66.1861 377.714 69.1918C379.348 72.1974 380.393 75.6387 380.851 79.5156ZM452.481 89.5455C452.481 96.8419 451.098 103.049 448.332 108.168C445.587 113.286 441.841 117.196 437.093 119.896C432.367 122.575 427.052 123.915 421.15 123.915C415.204 123.915 409.868 122.564 405.141 119.864C400.415 117.163 396.68 113.253 393.935 108.135C391.191 103.017 389.819 96.8201 389.819 89.5455C389.819 82.2491 391.191 76.0417 393.935 70.9233C396.68 65.8049 400.415 61.9062 405.141 59.2273C409.868 56.5265 415.204 55.1761 421.15 55.1761C427.052 55.1761 432.367 56.5265 437.093 59.2273C441.841 61.9062 445.587 65.8049 448.332 70.9233C451.098 76.0417 452.481 82.2491 452.481 89.5455ZM438.138 89.5455C438.138 84.8191 437.431 80.8333 436.015 77.5881C434.621 74.3428 432.65 71.8816 430.102 70.2045C427.553 68.5275 424.569 67.6889 421.15 67.6889C417.73 67.6889 414.746 68.5275 412.198 70.2045C409.65 71.8816 407.668 74.3428 406.252 77.5881C404.858 80.8333 404.161 84.8191 404.161 89.5455C404.161 94.2718 404.858 98.2576 406.252 101.503C407.668 104.748 409.65 107.209 412.198 108.886C414.746 110.563 417.73 111.402 421.15 111.402C424.569 111.402 427.553 110.563 430.102 108.886C432.65 107.209 434.621 104.748 436.015 101.503C437.431 98.2576 438.138 94.2718 438.138 89.5455ZM504.288 56.0909H518.434V99.5426C518.434 104.421 517.269 108.69 514.939 112.349C512.63 116.009 509.395 118.862 505.235 120.909C501.075 122.935 496.229 123.947 490.697 123.947C485.143 123.947 480.286 122.935 476.126 120.909C471.966 118.862 468.732 116.009 466.423 112.349C464.114 108.69 462.96 104.421 462.96 99.5426V56.0909H477.106V98.3338C477.106 100.882 477.662 103.147 478.772 105.129C479.905 107.111 481.495 108.669 483.542 109.801C485.59 110.934 487.975 111.5 490.697 111.5C493.441 111.5 495.826 110.934 497.852 109.801C499.899 108.669 501.478 107.111 502.589 105.129C503.722 103.147 504.288 100.882 504.288 98.3338V56.0909ZM530.073 123V56.0909H556.471C561.524 56.0909 565.836 56.9948 569.408 58.8026C573.002 60.5885 575.736 63.1259 577.609 66.4148C579.504 69.6818 580.451 73.526 580.451 77.9474C580.451 82.3906 579.493 86.2131 577.576 89.4148C575.659 92.5947 572.882 95.0341 569.245 96.733C565.629 98.4318 561.252 99.2812 556.112 99.2812H538.437V87.9119H553.825C556.525 87.9119 558.769 87.5417 560.555 86.8011C562.341 86.0606 563.669 84.9498 564.54 83.4688C565.433 81.9877 565.88 80.1473 565.88 77.9474C565.88 75.7259 565.433 73.8527 564.54 72.3281C563.669 70.8035 562.33 69.6491 560.522 68.8651C558.736 68.0592 556.482 67.6562 553.759 67.6562H544.219V123H530.073ZM566.207 92.5511L582.836 123H567.219L550.95 92.5511H566.207ZM626.745 75.3338C626.484 72.6984 625.362 70.651 623.38 69.1918C621.398 67.7325 618.708 67.0028 615.31 67.0028C613.002 67.0028 611.052 67.3295 609.462 67.983C607.872 68.6146 606.653 69.4967 605.803 70.6293C604.976 71.7618 604.562 73.0469 604.562 74.4844C604.518 75.6823 604.769 76.7277 605.313 77.6207C605.879 78.5137 606.653 79.2869 607.633 79.9403C608.613 80.572 609.746 81.1274 611.031 81.6065C612.316 82.0639 613.688 82.456 615.147 82.7827L621.158 84.2202C624.077 84.8736 626.756 85.7448 629.195 86.8338C631.635 87.9228 633.747 89.2623 635.533 90.8523C637.319 92.4422 638.702 94.3153 639.683 96.4716C640.684 98.6278 641.196 101.1 641.218 103.888C641.196 107.982 640.151 111.533 638.082 114.538C636.034 117.522 633.072 119.842 629.195 121.497C625.34 123.131 620.69 123.947 615.245 123.947C609.844 123.947 605.139 123.12 601.131 121.464C597.146 119.809 594.031 117.359 591.788 114.114C589.566 110.847 588.401 106.806 588.292 101.993H601.981C602.133 104.236 602.776 106.109 603.908 107.612C605.063 109.093 606.598 110.215 608.515 110.977C610.453 111.718 612.642 112.088 615.082 112.088C617.478 112.088 619.558 111.74 621.322 111.043C623.108 110.346 624.491 109.376 625.471 108.135C626.451 106.893 626.941 105.467 626.941 103.855C626.941 102.352 626.495 101.089 625.602 100.065C624.73 99.0417 623.445 98.1705 621.746 97.4517C620.069 96.733 618.011 96.0795 615.572 95.4915L608.286 93.6619C602.645 92.2898 598.191 90.1444 594.924 87.2259C591.657 84.3073 590.034 80.3759 590.056 75.4318C590.034 71.3807 591.112 67.8414 593.29 64.8139C595.49 61.7865 598.507 59.4233 602.34 57.7244C606.174 56.0256 610.53 55.1761 615.408 55.1761C620.374 55.1761 624.709 56.0256 628.411 57.7244C632.136 59.4233 635.032 61.7865 637.102 64.8139C639.171 67.8414 640.238 71.348 640.303 75.3338H626.745ZM650.733 123V56.0909H695.819V67.7543H664.88V83.6974H693.499V95.3608H664.88V111.337H695.949V123H650.733ZM743.362 75.3338C743.101 72.6984 741.979 70.651 739.997 69.1918C738.015 67.7325 735.325 67.0028 731.928 67.0028C729.619 67.0028 727.67 67.3295 726.08 67.983C724.49 68.6146 723.27 69.4967 722.42 70.6293C721.593 71.7618 721.179 73.0469 721.179 74.4844C721.135 75.6823 721.386 76.7277 721.93 77.6207C722.497 78.5137 723.27 79.2869 724.25 79.9403C725.23 80.572 726.363 81.1274 727.648 81.6065C728.933 82.0639 730.305 82.456 731.764 82.7827L737.776 84.2202C740.694 84.8736 743.373 85.7448 745.812 86.8338C748.252 87.9228 750.365 89.2623 752.151 90.8523C753.937 92.4422 755.32 94.3153 756.3 96.4716C757.302 98.6278 757.813 101.1 757.835 103.888C757.813 107.982 756.768 111.533 754.699 114.538C752.652 117.522 749.689 119.842 745.812 121.497C741.957 123.131 737.307 123.947 731.862 123.947C726.461 123.947 721.756 123.12 717.749 121.464C713.763 119.809 710.648 117.359 708.405 114.114C706.183 110.847 705.018 106.806 704.909 101.993H718.598C718.75 104.236 719.393 106.109 720.526 107.612C721.68 109.093 723.215 110.215 725.132 110.977C727.071 111.718 729.259 112.088 731.699 112.088C734.095 112.088 736.175 111.74 737.939 111.043C739.725 110.346 741.108 109.376 742.088 108.135C743.068 106.893 743.558 105.467 743.558 103.855C743.558 102.352 743.112 101.089 742.219 100.065C741.348 99.0417 740.063 98.1705 738.364 97.4517C736.687 96.733 734.628 96.0795 732.189 95.4915L724.903 93.6619C719.262 92.2898 714.808 90.1444 711.541 87.2259C708.274 84.3073 706.652 80.3759 706.673 75.4318C706.652 71.3807 707.73 67.8414 709.908 64.8139C712.107 61.7865 715.124 59.4233 718.957 57.7244C722.791 56.0256 727.147 55.1761 732.026 55.1761C736.991 55.1761 741.326 56.0256 745.028 57.7244C748.753 59.4233 751.65 61.7865 753.719 64.8139C755.788 67.8414 756.855 71.348 756.92 75.3338H743.362Z" fill="black"/>
</svg>
