<?xml version="1.0" encoding="utf-8"?>
<!-- Generator: Adobe Illustrator 27.5.0, SVG Export Plug-In . SVG Version: 6.00 Build 0)  -->
<svg version="1.1" xmlns="http://www.w3.org/2000/svg" xmlns:xlink="http://www.w3.org/1999/xlink" x="0px" y="0px"
	 viewBox="0 0 500 500" style="enable-background:new 0 0 500 500;" xml:space="preserve">
<g id="BACKGROUND">
	<rect id="XMLID_787_" x="0" style="opacity:0.42;fill:#D2CFE9;" width="500" height="500"/>
	<path id="XMLID_1224_" style="fill:#B9C3EB;" d="M114.808,59.042c40.598-8.34,87.375,7.58,117.593,47.862
		c9.454,12.603,17.429,26.737,29.774,36.525c6.193,4.911,13.429,8.342,20.813,11.161c29.066,11.094,61.532,13.085,91.735,5.626
		c14.893-3.678,29.323-9.6,44.584-11.155c15.261-1.555,32.286,2.239,41.596,14.431c5.331,6.981,7.513,15.865,8.559,24.585
		c1.405,11.718,0.897,24.034-4.223,34.667c-9.108,18.913-30.131,28.27-48.829,37.811c-25.038,12.776-49.766,29.757-61.568,55.268
		c-4.634,10.017-7.07,20.958-11.958,30.853c-11.179,22.628-34.788,37.714-59.672,41.928c-24.884,4.214-50.737-1.543-73.427-12.596
		c-8.168-3.979-16.155-8.757-22.102-15.625c-5.678-6.557-9.194-14.652-13.426-22.223c-9.581-17.138-23.208-31.998-39.454-43.025
		c-24.165-16.401-52.166-27.019-72.979-47.507C-7.165,179.718,30.012,76.462,114.808,59.042z"/>
</g>
<g id="OBJECTS">
	<g id="XMLID_1173_">
		<circle id="XMLID_1223_" style="fill:#FAD000;" cx="61.114" cy="247.876" r="28.54"/>
		
			<circle id="XMLID_1222_" style="fill:none;stroke:#FFFFFF;stroke-width:1.0749;stroke-miterlimit:10;" cx="61.114" cy="247.876" r="25.38"/>
		<polygon id="XMLID_1221_" style="fill:#FFFFFF;" points="55.222,234.909 55.222,262.77 72.656,247.392 		"/>
	</g>
	<ellipse id="XMLID_1172_" style="opacity:0.59;fill:#D2CFE9;" cx="284.452" cy="414.481" rx="164.995" ry="9.108"/>
	<g id="XMLID_1132_">
		
			<ellipse id="XMLID_1170_" transform="matrix(0.2182 -0.9759 0.9759 0.2182 161.0818 497.6324)" style="fill:#48CB99;" cx="391.135" cy="148.278" rx="53.615" ry="53.615"/>
		
			<ellipse id="XMLID_1169_" transform="matrix(0.2478 -0.9688 0.9688 0.2478 150.5471 490.4628)" style="fill:#FCFAEB;" cx="391.135" cy="148.278" rx="47.836" ry="47.836"/>
		<path id="XMLID_1168_" style="fill:#6571AF;" d="M394.562,148.278c0,1.431-1.16,2.591-2.591,2.591s-2.591-1.16-2.591-2.591
			c0-1.431,1.16-2.591,2.591-2.591S394.562,146.847,394.562,148.278z"/>
		<path id="XMLID_1167_" style="fill:#6571AF;" d="M434.416,147.282c0,1.431-1.16,2.591-2.591,2.591s-2.591-1.16-2.591-2.591
			c0-1.431,1.16-2.591,2.591-2.591S434.416,145.851,434.416,147.282z"/>
		<path id="XMLID_1166_" style="fill:#6571AF;" d="M394.562,107.758c0,1.431-1.16,2.591-2.591,2.591s-2.591-1.16-2.591-2.591
			c0-1.431,1.16-2.591,2.591-2.591S394.562,106.328,394.562,107.758z"/>
		<path id="XMLID_1165_" style="fill:#6571AF;" d="M354.496,148.278c0,1.431-1.16,2.591-2.591,2.591s-2.591-1.16-2.591-2.591
			c0-1.431,1.16-2.591,2.591-2.591S354.496,146.847,354.496,148.278z"/>
		<path id="XMLID_1164_" style="fill:#6571AF;" d="M394.562,187.151c0,1.431-1.16,2.591-2.591,2.591s-2.591-1.16-2.591-2.591
			c0-1.431,1.16-2.591,2.591-2.591S394.562,185.72,394.562,187.151z"/>
		<g id="XMLID_1161_">
			<path id="XMLID_32_" style="fill:#6571AF;" d="M407.569,129.291c0,0-0.816,1.213-2.103,2.984
				c-0.653,0.877-1.396,1.916-2.227,3.002c-0.834,1.083-1.724,2.238-2.613,3.393c-1.796,2.297-3.656,4.543-5.076,6.208
				c-1.419,1.666-2.411,2.74-2.411,2.74c-0.204,0.22-0.547,0.234-0.767,0.03c-0.199-0.184-0.229-0.483-0.082-0.702
				c0,0,0.815-1.214,2.109-2.978c1.292-1.766,3.049-4.094,4.869-6.372c0.918-1.132,1.837-2.264,2.698-3.326
				c0.865-1.059,1.704-2.021,2.407-2.859c1.426-1.66,2.418-2.734,2.418-2.734c0.186-0.202,0.501-0.214,0.703-0.028
				C407.677,128.817,407.704,129.091,407.569,129.291z"/>
		</g>
		<g id="XMLID_1158_">
			<path id="XMLID_30_" style="fill:#6571AF;" d="M392.466,150.869c0,0,0.108,0.813,0.204,2.033c0.091,1.22,0.16,2.846,0.167,4.473
				c0.007,1.627-0.043,3.253-0.129,4.473c-0.088,1.22-0.197,2.033-0.197,2.033c-0.04,0.299-0.315,0.509-0.614,0.469
				c-0.25-0.033-0.437-0.231-0.469-0.469c0,0-0.109-0.813-0.197-2.033c-0.086-1.22-0.136-2.846-0.129-4.473
				c0.007-1.627,0.076-3.253,0.167-4.473c0.096-1.22,0.204-2.033,0.204-2.033c0.036-0.274,0.288-0.466,0.562-0.43
				C392.266,150.47,392.437,150.651,392.466,150.869z"/>
		</g>
		<g id="XMLID_1155_">
			<path id="XMLID_28_" style="fill:#6571AF;" d="M413.858,110.592c0,0-0.075,0.356-0.246,0.856
				c-0.175,0.499-0.455,1.138-0.788,1.746c-0.333,0.609-0.717,1.189-1.046,1.601c-0.332,0.411-0.596,0.66-0.596,0.66
				c-0.228,0.215-0.587,0.205-0.802-0.023c-0.132-0.14-0.178-0.332-0.142-0.507c0,0,0.075-0.356,0.253-0.853
				c0.18-0.496,0.475-1.126,0.821-1.728c0.346-0.602,0.745-1.173,1.079-1.583c0.339-0.407,0.603-0.656,0.603-0.656
				c0.209-0.197,0.537-0.188,0.734,0.021C413.849,110.256,413.891,110.432,413.858,110.592z"/>
		</g>
		<g id="XMLID_1152_">
			<path id="XMLID_26_" style="fill:#6571AF;" d="M429.499,126.268c0,0-0.251,0.287-0.663,0.662
				c-0.414,0.371-0.995,0.821-1.609,1.218c-0.614,0.398-1.259,0.747-1.768,0.969c-0.51,0.219-0.878,0.324-0.878,0.324
				c-0.3,0.085-0.612-0.089-0.697-0.389c-0.054-0.189-0.002-0.386,0.117-0.525c0,0,0.251-0.288,0.667-0.656
				c0.417-0.366,1.008-0.801,1.63-1.186c0.621-0.386,1.276-0.72,1.788-0.937c0.515-0.213,0.882-0.317,0.882-0.317
				c0.275-0.078,0.561,0.081,0.639,0.356C429.657,125.96,429.609,126.141,429.499,126.268z"/>
		</g>
		<g id="XMLID_1148_">
			<path id="XMLID_24_" style="fill:#6571AF;" d="M371.277,110.107c0,0,0.264,0.25,0.603,0.656c0.334,0.41,0.734,0.981,1.079,1.583
				c0.346,0.602,0.641,1.232,0.821,1.728c0.178,0.497,0.253,0.853,0.253,0.853c0.065,0.307-0.131,0.608-0.438,0.672
				c-0.188,0.04-0.376-0.021-0.506-0.142c0,0-0.265-0.249-0.596-0.66c-0.329-0.412-0.713-0.993-1.046-1.601
				c-0.333-0.609-0.613-1.248-0.788-1.746c-0.171-0.501-0.246-0.856-0.246-0.856c-0.059-0.281,0.12-0.556,0.4-0.616
				C370.985,109.94,371.158,109.995,371.277,110.107z"/>
		</g>
		<g id="XMLID_1145_">
			<path id="XMLID_22_" style="fill:#6571AF;" d="M355.303,125.43c0,0,0.367,0.104,0.882,0.317c0.512,0.217,1.167,0.551,1.788,0.937
				c0.622,0.386,1.212,0.82,1.629,1.186c0.416,0.368,0.667,0.656,0.667,0.656c0.205,0.235,0.181,0.592-0.055,0.797
				c-0.148,0.129-0.349,0.166-0.525,0.117c0,0-0.367-0.104-0.878-0.324c-0.509-0.222-1.154-0.57-1.768-0.969
				c-0.614-0.398-1.195-0.848-1.609-1.218c-0.412-0.375-0.663-0.662-0.663-0.662c-0.188-0.215-0.166-0.542,0.049-0.73
				C354.957,125.419,355.141,125.386,355.303,125.43z"/>
		</g>
		<g id="XMLID_1142_">
			<path id="XMLID_20_" style="fill:#6571AF;" d="M412.993,184.803c0,0-0.264-0.25-0.603-0.657
				c-0.334-0.409-0.734-0.981-1.079-1.583c-0.346-0.602-0.641-1.232-0.821-1.728c-0.178-0.497-0.253-0.853-0.253-0.853
				c-0.065-0.306,0.131-0.607,0.438-0.672c0.188-0.04,0.376,0.021,0.506,0.142c0,0,0.265,0.25,0.596,0.66
				c0.329,0.412,0.713,0.992,1.046,1.601c0.334,0.609,0.613,1.248,0.788,1.746c0.171,0.501,0.246,0.857,0.246,0.857
				c0.06,0.281-0.12,0.556-0.4,0.616C413.286,184.97,413.113,184.914,412.993,184.803z"/>
		</g>
		<g id="XMLID_1139_">
			<path id="XMLID_18_" style="fill:#6571AF;" d="M428.969,169.48c0,0-0.367-0.105-0.882-0.317
				c-0.512-0.217-1.167-0.551-1.788-0.937c-0.622-0.385-1.212-0.82-1.629-1.186c-0.416-0.368-0.667-0.656-0.667-0.656
				c-0.205-0.235-0.18-0.592,0.055-0.797c0.148-0.129,0.349-0.166,0.525-0.117c0,0,0.367,0.104,0.878,0.323
				c0.509,0.222,1.154,0.571,1.768,0.969c0.614,0.398,1.195,0.848,1.609,1.218c0.412,0.375,0.663,0.662,0.663,0.662
				c0.188,0.215,0.166,0.542-0.049,0.73C429.315,169.491,429.131,169.525,428.969,169.48z"/>
		</g>
		<g id="XMLID_1136_">
			<path id="XMLID_16_" style="fill:#6571AF;" d="M370.413,184.318c0,0,0.075-0.356,0.246-0.857
				c0.175-0.499,0.455-1.138,0.788-1.746c0.333-0.609,0.717-1.189,1.046-1.601c0.332-0.411,0.596-0.66,0.596-0.66
				c0.228-0.215,0.587-0.204,0.802,0.023c0.132,0.14,0.178,0.332,0.142,0.507c0,0-0.075,0.356-0.253,0.853
				c-0.18,0.496-0.475,1.126-0.821,1.728c-0.346,0.602-0.745,1.173-1.079,1.583c-0.339,0.407-0.603,0.657-0.603,0.657
				c-0.208,0.197-0.537,0.188-0.734-0.021C370.423,184.654,370.381,184.478,370.413,184.318z"/>
		</g>
		<g id="XMLID_1133_">
			<path id="XMLID_14_" style="fill:#6571AF;" d="M354.771,168.642c0,0,0.251-0.287,0.663-0.662
				c0.414-0.371,0.995-0.821,1.609-1.218c0.614-0.398,1.259-0.747,1.768-0.969c0.511-0.219,0.878-0.323,0.878-0.323
				c0.3-0.085,0.612,0.089,0.698,0.389c0.054,0.189,0.002,0.386-0.117,0.525c0,0-0.251,0.288-0.667,0.656
				c-0.417,0.366-1.008,0.801-1.63,1.186c-0.621,0.386-1.276,0.719-1.788,0.937c-0.515,0.213-0.882,0.317-0.882,0.317
				c-0.275,0.078-0.561-0.081-0.639-0.356C354.614,168.951,354.662,168.77,354.771,168.642z"/>
		</g>
	</g>
	<g id="XMLID_1118_">
		<polygon id="XMLID_1131_" style="fill:#473EA5;" points="280.027,362.416 292.319,404.456 228.872,404.456 241.164,362.416 		"/>
		<rect id="XMLID_1130_" x="223.205" y="404.456" style="fill:#473EA5;" width="74.86" height="6.24"/>
		<path id="XMLID_1129_" style="fill:#473EA5;" d="M385.143,362.389h-249.5c-7.508,0-13.595-6.087-13.595-13.595V195.324
			c0-7.509,6.087-13.595,13.595-13.595h249.5c7.508,0,13.595,6.087,13.595,13.595v153.469
			C398.738,356.302,392.652,362.389,385.143,362.389z"/>
		<path id="XMLID_1128_" style="fill:#DED8EB;" d="M379.472,332.706H141.798c-4.808,0-8.706-3.898-8.706-8.706V202.397
			c0-4.808,3.898-8.706,8.706-8.706h237.674c4.808,0,8.706,3.898,8.706,8.706V324C388.178,328.808,384.28,332.706,379.472,332.706z"
			/>
		<path id="XMLID_1127_" style="fill:#28215E;" d="M265.262,346.994c0,2.689-2.18,4.868-4.868,4.868
			c-2.689,0-4.868-2.18-4.868-4.868c0-2.689,2.18-4.868,4.868-4.868C263.082,342.125,265.262,344.305,265.262,346.994z"/>
		<g id="XMLID_1120_">
			
				<rect id="XMLID_1126_" x="146.01" y="205.319" style="fill:none;stroke:#FFFFFF;stroke-width:0.7979;stroke-miterlimit:10;" width="228.66" height="111.101"/>
			<rect id="XMLID_1125_" x="145.585" y="204.839" style="fill:#8293DC;" width="229.478" height="9.12"/>
			<g id="XMLID_1121_">
				<circle id="XMLID_1124_" style="fill:#FFFFFF;" cx="151.636" cy="209.399" r="1.47"/>
				<circle id="XMLID_1123_" style="fill:#FFFFFF;" cx="156.045" cy="209.399" r="1.47"/>
				<circle id="XMLID_1122_" style="fill:#FFFFFF;" cx="160.874" cy="209.399" r="1.47"/>
			</g>
		</g>
		<path id="XMLID_1119_" style="opacity:0.59;fill:#D2CFE9;" d="M141.798,332.706h237.674c4.808,0,8.706-3.898,8.706-8.706V202.397
			C388.178,202.397,349.861,322.277,141.798,332.706z"/>
	</g>
	<g id="XMLID_1091_">
		<path id="XMLID_1117_" style="fill:#D2CFE9;" d="M309.189,170.064h-90.5c-5.623,0-10.181,4.558-10.181,10.181v6.379v115.67
			c0,5.623,4.558,10.181,10.181,10.181h90.5c5.623,0,10.181-4.558,10.181-10.181V185.978v-5.733
			C319.37,174.622,314.812,170.064,309.189,170.064z"/>
		<path id="XMLID_1116_" style="fill:#FFFFFF;" d="M316.066,183.545v116.316c0,5.623-4.558,10.181-10.181,10.181h-90.5
			c-5.623,0-10.181-4.558-10.181-10.181v-115.67"/>
		<path id="XMLID_1115_" style="fill:#6571AF;" d="M205.204,184.191v-6.379c0-5.623,4.558-10.181,10.181-10.181h90.5
			c5.623,0,10.181,4.558,10.181,10.181v5.733L205.204,184.191z"/>
		<g id="XMLID_1111_">
			<rect id="XMLID_1114_" x="225.676" y="196.183" style="fill:#6571AF;" width="80.596" height="2.167"/>
			<rect id="XMLID_1113_" x="225.676" y="202.033" style="fill:#6571AF;" width="80.596" height="2.167"/>
			<rect id="XMLID_1112_" x="225.676" y="208.316" style="fill:#6571AF;" width="41.319" height="2.167"/>
		</g>
		
			<rect id="XMLID_1110_" x="216.749" y="196.183" style="fill:none;stroke:#6571AF;stroke-width:0.4808;stroke-miterlimit:10;" width="4.766" height="4.766"/>
		<g id="XMLID_1106_">
			<rect id="XMLID_1109_" x="225.676" y="217.633" style="fill:#6571AF;" width="80.596" height="2.167"/>
			<rect id="XMLID_1108_" x="225.676" y="223.483" style="fill:#6571AF;" width="80.596" height="2.167"/>
			<rect id="XMLID_1107_" x="225.676" y="229.766" style="fill:#6571AF;" width="41.319" height="2.167"/>
		</g>
		
			<rect id="XMLID_1105_" x="216.749" y="217.633" style="fill:none;stroke:#6571AF;stroke-width:0.4808;stroke-miterlimit:10;" width="4.766" height="4.766"/>
		<g id="XMLID_1092_">
			
				<rect id="XMLID_1104_" x="228.042" y="245.493" style="fill:none;stroke:#6571AF;stroke-width:0.4808;stroke-miterlimit:10;" width="4.766" height="4.766"/>
			<rect id="XMLID_1103_" x="235.837" y="245.71" style="fill:#6571AF;" width="63.704" height="2.167"/>
			<rect id="XMLID_1102_" x="235.837" y="250.478" style="fill:#6571AF;" width="63.704" height="2.167"/>
			<rect id="XMLID_1101_" x="235.837" y="255.378" style="fill:#6571AF;" width="63.704" height="2.167"/>
			
				<rect id="XMLID_1100_" x="228.042" y="264.301" style="fill:none;stroke:#6571AF;stroke-width:0.4808;stroke-miterlimit:10;" width="4.766" height="4.766"/>
			<rect id="XMLID_1099_" x="235.837" y="264.517" style="fill:#6571AF;" width="63.704" height="2.167"/>
			<rect id="XMLID_1098_" x="235.837" y="269.285" style="fill:#6571AF;" width="63.704" height="2.167"/>
			<rect id="XMLID_1097_" x="235.837" y="274.186" style="fill:#6571AF;" width="63.704" height="2.167"/>
			
				<rect id="XMLID_1096_" x="228.042" y="281.916" style="fill:none;stroke:#6571AF;stroke-width:0.4808;stroke-miterlimit:10;" width="4.766" height="4.766"/>
			<rect id="XMLID_1095_" x="235.837" y="282.133" style="fill:#6571AF;" width="63.704" height="2.167"/>
			<rect id="XMLID_1094_" x="235.837" y="286.901" style="fill:#6571AF;" width="63.704" height="2.167"/>
			<rect id="XMLID_1093_" x="235.837" y="291.801" style="fill:#6571AF;" width="63.704" height="2.167"/>
		</g>
	</g>
	<g id="XMLID_1084_">
		<path id="XMLID_1090_" style="fill:#D2CFE9;" d="M187.988,281.682h-53.78c-2.152,0-3.897-1.745-3.897-3.897v-37.687
			c0-2.152,1.745-3.897,3.897-3.897h53.78c2.152,0,3.897,1.745,3.897,3.897v37.687C191.885,279.938,190.14,281.682,187.988,281.682z
			"/>
		<path id="XMLID_1089_" style="fill:#48CB99;" d="M185.702,279.912h-53.78c-2.152,0-3.897-1.745-3.897-3.897v-37.687
			c0-2.152,1.745-3.897,3.897-3.897h53.78c2.152,0,3.897,1.745,3.897,3.897v37.687C189.599,278.167,187.854,279.912,185.702,279.912
			z"/>
		
			<text id="XMLID_1088_" transform="matrix(1 0 0 1 137.4122 255.7979)" style="fill:#FFFFFF; font-family:'Antonio-Regular'; font-size:12.4827px;">TIME LEFT:</text>
		<g id="XMLID_1085_">
			<text transform="matrix(1 0 0 1 144.9943 269.0804)" style="fill:#FFFFFF; font-family:'Antonio-Regular'; font-size:9.6042px;">30 min</text>
		</g>
	</g>
	<polygon id="XMLID_1076_" style="opacity:0.58;fill:#473EA5;" points="241.164,362.416 280.027,362.416 282.052,369.339 
		239.139,369.339 	"/>
	<g id="XMLID_1050_">
		<rect id="XMLID_1075_" x="296.428" y="229.04" style="opacity:0.48;fill:#D2CFE9;" width="130.866" height="163.605"/>
		<rect id="XMLID_1074_" x="292.101" y="222.669" style="fill:#8293DC;" width="130.866" height="163.605"/>
		<rect id="XMLID_1073_" x="296.428" y="226.475" style="fill:#FCFAEB;" width="122.597" height="154.313"/>
		<g id="XMLID_1064_">
			<g id="XMLID_1071_">
				<polygon id="XMLID_1072_" style="fill:#473EA5;" points="367.405,416.856 357.853,412.609 348.302,416.856 348.302,384.915 
					367.405,384.915 				"/>
			</g>
			<g id="XMLID_1066_">
				<path id="XMLID_1070_" style="fill:#FAD000;" d="M363.688,349.099c-2.663-0.801-5.267-1.957-6.632-4.38
					c-3.456,4.91-10.396,7.024-16.002,4.874c0.544,5.834-3.685,11.744-9.384,13.111c4.311,5.903,4.158,14.672-0.357,20.422
					c6.049,1.184,10.639,7.45,9.942,13.574c5.744-2.976,13.649-0.611,16.814,5.03c1.03-3.091,3.859-5.371,6.985-6.293
					c3.125-0.922,6.504-0.625,9.647,0.235c-0.96-3.128-0.454-6.671,1.341-9.406c1.795-2.735,4.846-4.608,8.097-4.971
					c-3.669-5.765-4.19-13.406-1.338-19.616c-2.85,0.076-6.69-2.575-7.89-5.16c-1.201-2.585-1.916-5.481-1.923-8.331
					C372.988,348.188,368.189,350.453,363.688,349.099z"/>
				<path id="XMLID_1069_" style="fill:#FCFAEB;" d="M374.365,377.017c-2.152,9.235-11.383,14.977-20.618,12.825
					c-9.235-2.152-14.977-11.382-12.825-20.617c2.152-9.235,11.383-14.977,20.618-12.825
					C370.775,358.552,376.517,367.783,374.365,377.017z"/>
				<path id="XMLID_1068_" style="fill:#FFD864;" d="M371.18,376.275c-1.742,7.476-9.215,12.124-16.691,10.382
					c-7.476-1.742-12.124-9.214-10.382-16.69c1.742-7.476,9.215-12.124,16.691-10.382
					C368.273,361.327,372.922,368.799,371.18,376.275z"/>
			</g>
		</g>
		<g id="XMLID_1052_">
			<rect id="XMLID_1062_" x="337.291" y="279.906" style="fill:#8293DC;" width="40.009" height="2.397"/>
			<rect id="XMLID_1061_" x="320.162" y="274.35" style="fill:#8293DC;" width="72.528" height="2.397"/>
			<rect id="XMLID_1060_" x="328.046" y="299.606" style="fill:#8293DC;" width="58.752" height="2.397"/>
			<rect id="XMLID_1059_" x="327.695" y="310.842" style="fill:#8293DC;" width="58.752" height="2.397"/>
			<rect id="XMLID_1058_" x="327.695" y="317.048" style="fill:#8293DC;" width="58.752" height="2.397"/>
			<rect id="XMLID_1055_" x="323.779" y="305.057" style="fill:#8293DC;" width="67.511" height="2.397"/>
			<rect id="XMLID_1054_" x="320.162" y="334.487" style="fill:#8293DC;" width="28.14" height="2.397"/>
			<rect id="XMLID_1053_" x="364.549" y="334.487" style="fill:#8293DC;" width="28.14" height="2.397"/>
		</g>
		
			<text id="XMLID_1051_" transform="matrix(1 0 0 1 320.2135 264.7855)" style="fill:#8293DC; font-family:'Antonio-Regular'; font-size:17.5285px;">CERTIFICATE</text>
	</g>
	<g id="XMLID_3_">
		<ellipse id="XMLID_1171_" style="opacity:0.59;fill:#D2CFE9;" cx="118.792" cy="434" rx="77.143" ry="9.108"/>
		<g id="XMLID_959_">
			<rect id="XMLID_1049_" x="49.917" y="415.745" style="fill:#48CB99;" width="139.08" height="20.094"/>
			<rect id="XMLID_1048_" x="47.831" y="370.076" style="fill:#FFD864;" width="139.08" height="20.094"/>
			<rect id="XMLID_1047_" x="54.438" y="390.169" style="fill:#6571AF;" width="139.08" height="25.575"/>
			
				<line id="XMLID_1046_" style="fill:none;stroke:#FFFFFF;stroke-width:1.0996;stroke-miterlimit:10;" x1="67.851" y1="415.745" x2="67.851" y2="435.839"/>
			
				<line id="XMLID_1045_" style="fill:none;stroke:#FFFFFF;stroke-width:1.0996;stroke-miterlimit:10;" x1="74.394" y1="415.745" x2="74.394" y2="435.839"/>
			
				<line id="XMLID_1044_" style="fill:none;stroke:#FFFFFF;stroke-width:1.0996;stroke-miterlimit:10;" x1="165.682" y1="415.745" x2="165.682" y2="435.839"/>
			
				<line id="XMLID_1043_" style="fill:none;stroke:#FFFFFF;stroke-width:1.0996;stroke-miterlimit:10;" x1="172.225" y1="415.745" x2="172.225" y2="435.839"/>
			
				<line id="XMLID_1042_" style="fill:none;stroke:#FFFFFF;stroke-width:1.2405;stroke-miterlimit:10;" x1="177.493" y1="390.169" x2="177.493" y2="415.745"/>
			
				<line id="XMLID_1041_" style="fill:none;stroke:#FFFFFF;stroke-width:1.2405;stroke-miterlimit:10;" x1="184.036" y1="390.169" x2="184.036" y2="415.745"/>
			
				<line id="XMLID_1028_" style="fill:none;stroke:#FFFFFF;stroke-width:1.2405;stroke-miterlimit:10;" x1="77.773" y1="390.169" x2="77.773" y2="415.745"/>
			
				<line id="XMLID_1022_" style="fill:none;stroke:#FFFFFF;stroke-width:1.2405;stroke-miterlimit:10;" x1="84.316" y1="390.169" x2="84.316" y2="415.745"/>
			
				<line id="XMLID_1021_" style="fill:none;stroke:#FFFFFF;stroke-width:1.0996;stroke-miterlimit:10;" x1="57.406" y1="370.076" x2="57.406" y2="390.169"/>
			
				<line id="XMLID_1020_" style="fill:none;stroke:#FFFFFF;stroke-width:1.0996;stroke-miterlimit:10;" x1="63.949" y1="370.076" x2="63.949" y2="390.169"/>
			
				<line id="XMLID_1019_" style="fill:none;stroke:#FFFFFF;stroke-width:1.0996;stroke-miterlimit:10;" x1="165.682" y1="370.076" x2="165.682" y2="390.169"/>
			
				<line id="XMLID_1018_" style="fill:none;stroke:#FFFFFF;stroke-width:1.0996;stroke-miterlimit:10;" x1="172.225" y1="370.076" x2="172.225" y2="390.169"/>
			<rect id="XMLID_1011_" x="49.917" y="432.161" style="opacity:0.36;fill:#48CB99;" width="139.08" height="3.678"/>
			<rect id="XMLID_988_" x="54.438" y="412.067" style="opacity:0.46;fill:#6571AF;" width="139.08" height="3.678"/>
			<rect id="XMLID_983_" x="47.831" y="386.492" style="opacity:0.49;fill:#FFD864;" width="139.08" height="3.678"/>
		</g>
	</g>
	<g id="XMLID_2_">
		<g id="XMLID_1077_">
			<path id="XMLID_1080_" style="fill:#ED6A8D;" d="M94.037,370.207H78.79c-7.955,0-14.404-6.449-14.404-14.404v-39.759h43.652
				v40.163C108.037,363.939,101.769,370.207,94.037,370.207z"/>
			<path id="XMLID_1079_" style="opacity:0.54;fill:#ED6A8D;" d="M71.27,367.457c2.536,1.736,5.604,2.751,8.909,2.751h12.508
				c8.478,0,15.35-6.873,15.35-15.35v-38.813C108.037,316.043,103.972,369.67,71.27,367.457"/>
			<path id="XMLID_1078_" style="fill:none;stroke:#ED6A8D;stroke-width:3.2892;stroke-miterlimit:10;" d="M66.249,327.034
				c-0.606-2.066-2.468-3.706-4.593-4.048c-2.125-0.342-4.408,0.632-5.631,2.403c-0.835,1.209-1.174,2.686-1.426,4.134
				c-0.759,4.363-0.881,8.836-0.362,13.233c0.324,2.742,1.162,5.822,3.634,7.052c1.987,0.988,4.472,0.393,6.26-0.921
				s3.02-3.233,4.177-5.127"/>
		</g>
		<g id="XMLID_784_">
			<g id="XMLID_948_">
				<path id="XMLID_39_" style="fill:#454B8F;" d="M79.028,286.063c0,0-0.084,0.085-0.242,0.244
					c-0.162,0.158-0.398,0.392-0.629,0.697c-0.249,0.291-0.532,0.702-0.803,1.182c-0.283,0.477-0.535,1.053-0.765,1.694
					c-0.452,1.28-0.689,2.897-0.463,4.569c0.11,0.834,0.33,1.681,0.684,2.483c0.362,0.792,0.866,1.544,1.437,2.301
					c0.566,0.77,1.144,1.527,1.65,2.454l0.312,0.63l0.283,0.71c0.161,0.475,0.298,0.936,0.383,1.407
					c0.387,1.878,0.143,3.684-0.295,5.122c-0.23,0.72-0.506,1.358-0.817,1.887c-0.296,0.536-0.61,0.972-0.886,1.312
					c-0.272,0.346-0.509,0.595-0.68,0.757c-0.165,0.167-0.253,0.255-0.253,0.255c-0.155,0.156-0.407,0.157-0.563,0.002
					c-0.149-0.148-0.157-0.385-0.022-0.543l0.025-0.029c0,0,0.075-0.086,0.215-0.248c0.145-0.157,0.346-0.397,0.571-0.727
					c0.229-0.324,0.487-0.736,0.722-1.237c0.246-0.495,0.458-1.084,0.649-1.735c0.36-1.308,0.477-2.927,0.131-4.573
					c-0.077-0.411-0.208-0.824-0.345-1.221l-0.235-0.581l-0.318-0.627c-0.403-0.725-0.995-1.491-1.558-2.262
					c-0.569-0.778-1.13-1.626-1.538-2.556c-0.396-0.928-0.631-1.894-0.742-2.838c-0.22-1.895,0.143-3.674,0.688-5.07
					c0.274-0.702,0.602-1.314,0.947-1.818c0.338-0.511,0.662-0.924,0.978-1.248c0.304-0.341,0.551-0.553,0.72-0.698
					c0.168-0.148,0.258-0.227,0.258-0.227c0.152-0.134,0.383-0.119,0.516,0.033C79.171,285.708,79.162,285.928,79.028,286.063z"/>
			</g>
			<g id="XMLID_911_">
				<path id="XMLID_37_" style="fill:#454B8F;" d="M86.702,286.063c0,0-0.084,0.085-0.242,0.244
					c-0.162,0.158-0.398,0.392-0.629,0.697c-0.249,0.291-0.532,0.702-0.803,1.182c-0.283,0.477-0.535,1.053-0.766,1.694
					c-0.452,1.28-0.689,2.897-0.462,4.569c0.11,0.834,0.329,1.681,0.684,2.483c0.362,0.793,0.866,1.544,1.437,2.301
					c0.566,0.77,1.144,1.527,1.65,2.454l0.312,0.63l0.283,0.71c0.161,0.475,0.298,0.936,0.384,1.407
					c0.387,1.878,0.143,3.684-0.295,5.122c-0.23,0.72-0.506,1.358-0.817,1.887c-0.296,0.536-0.61,0.972-0.885,1.312
					c-0.272,0.346-0.509,0.595-0.68,0.757c-0.165,0.167-0.253,0.255-0.253,0.255c-0.155,0.156-0.407,0.157-0.563,0.002
					c-0.15-0.148-0.157-0.385-0.022-0.543l0.025-0.029c0,0,0.075-0.086,0.215-0.248c0.145-0.157,0.346-0.397,0.571-0.727
					c0.229-0.324,0.487-0.736,0.722-1.237c0.246-0.495,0.458-1.084,0.649-1.735c0.36-1.308,0.477-2.927,0.131-4.573
					c-0.077-0.411-0.208-0.824-0.345-1.221l-0.235-0.581l-0.318-0.627c-0.403-0.725-0.995-1.491-1.557-2.262
					c-0.569-0.778-1.131-1.626-1.539-2.556c-0.395-0.928-0.631-1.894-0.741-2.838c-0.22-1.895,0.143-3.674,0.688-5.07
					c0.274-0.702,0.602-1.314,0.946-1.818c0.338-0.511,0.662-0.924,0.978-1.248c0.304-0.341,0.551-0.553,0.72-0.698
					c0.168-0.148,0.258-0.227,0.258-0.227c0.152-0.134,0.383-0.119,0.517,0.033C86.845,285.708,86.837,285.928,86.702,286.063z"/>
			</g>
			<g id="XMLID_785_">
				<path id="XMLID_35_" style="fill:#454B8F;" d="M95.522,286.063c0,0-0.084,0.085-0.242,0.244
					c-0.162,0.158-0.398,0.392-0.629,0.697c-0.249,0.291-0.532,0.702-0.803,1.182c-0.283,0.477-0.535,1.053-0.766,1.694
					c-0.452,1.28-0.689,2.897-0.462,4.569c0.11,0.834,0.329,1.681,0.684,2.483c0.362,0.793,0.866,1.544,1.437,2.301
					c0.566,0.77,1.144,1.527,1.65,2.454l0.312,0.63l0.283,0.71c0.161,0.475,0.298,0.936,0.383,1.407
					c0.387,1.878,0.143,3.684-0.295,5.122c-0.23,0.72-0.506,1.358-0.817,1.887c-0.296,0.536-0.61,0.972-0.885,1.312
					c-0.272,0.345-0.509,0.595-0.68,0.757c-0.165,0.167-0.253,0.255-0.253,0.255c-0.155,0.156-0.407,0.157-0.563,0.002
					c-0.15-0.148-0.157-0.385-0.022-0.543l0.025-0.029c0,0,0.075-0.086,0.215-0.248c0.145-0.157,0.346-0.397,0.571-0.727
					c0.229-0.324,0.487-0.736,0.722-1.237c0.246-0.495,0.458-1.084,0.649-1.735c0.36-1.308,0.477-2.927,0.131-4.573
					c-0.077-0.411-0.207-0.824-0.345-1.221l-0.235-0.581l-0.318-0.627c-0.403-0.725-0.995-1.491-1.557-2.262
					c-0.569-0.778-1.131-1.626-1.539-2.556c-0.396-0.928-0.631-1.894-0.741-2.838c-0.22-1.895,0.143-3.674,0.688-5.07
					c0.274-0.702,0.602-1.314,0.946-1.818c0.338-0.511,0.662-0.924,0.978-1.248c0.304-0.341,0.551-0.553,0.72-0.698
					c0.168-0.148,0.258-0.227,0.258-0.227c0.152-0.134,0.383-0.119,0.517,0.033C95.666,285.708,95.657,285.928,95.522,286.063z"/>
			</g>
		</g>
	</g>
	
		<text id="XMLID_711_" transform="matrix(1 0 0 1 252.653 179.7181)" style="fill:#FCFAEB; font-family:'Antonio-Regular'; font-size:10.2348px;">TEST</text>
	<g id="XMLID_4_">
		<polygon id="XMLID_1083_" style="fill:#373271;" points="80.979,203.537 126.813,139.159 206.959,136.591 157.357,195.261 		"/>
		<path id="XMLID_1082_" style="fill:#28215E;" d="M176.234,149.063c-49.343,1.804-72.516,38.535-72.516,38.535l17.284,32.528
			c0,0,33.859-31.122,72.516-38.536l-16.944-31.888"/>
		<path id="XMLID_1081_" style="opacity:0.41;fill:#28215E;" d="M167.158,190.158c8.256-3.704,17.172-6.805,26.36-8.567
			l-16.944-31.888l-0.34-0.639c-49.343,1.804-72.516,38.535-72.516,38.535l3.236,6.09
			C106.954,193.688,144.778,160.598,167.158,190.158"/>
		<g id="XMLID_707_">
			<path id="XMLID_33_" style="fill:#DEB800;" d="M93.251,186.609c0,0-0.088,0.122-0.252,0.352
				c-0.143,0.208-0.351,0.559-0.547,1.022c-0.393,0.92-0.711,2.421-0.231,4.131c0.237,0.834,0.653,1.701,1.223,2.557
				c0.562,0.86,1.269,1.704,2.022,2.577c0.75,0.875,1.539,1.8,2.244,2.848c0.179,0.268,0.342,0.521,0.517,0.822
				c0.148,0.269,0.299,0.522,0.44,0.836c0.298,0.602,0.515,1.198,0.72,1.82c0.762,2.489,0.885,5.102,0.705,7.462
				c-0.183,2.365-0.578,4.508-0.924,6.303c-0.345,1.8-0.629,3.277-0.803,4.323c-0.168,1.05-0.264,1.651-0.264,1.651
				c-0.038,0.234-0.258,0.394-0.492,0.356c-0.183-0.029-0.32-0.17-0.354-0.341l-0.001-0.008c0,0-0.121-0.626-0.171-1.732
				c-0.058-1.105-0.007-2.689,0.225-4.536c0.206-1.855,0.609-3.952,0.841-6.185c0.222-2.223,0.31-4.615-0.221-6.894
				c-0.135-0.56-0.296-1.139-0.503-1.655c-0.087-0.256-0.226-0.543-0.35-0.819c-0.113-0.236-0.257-0.509-0.396-0.757
				c-0.589-1.003-1.3-1.939-2-2.857c-0.696-0.921-1.385-1.824-1.967-2.744c-0.579-0.919-1.018-1.886-1.259-2.836
				c-0.256-0.92-0.304-1.846-0.221-2.627c0.083-0.788,0.265-1.461,0.473-1.993c0.211-0.534,0.427-0.921,0.603-1.193
				c0.165-0.243,0.254-0.373,0.254-0.373c0.131-0.194,0.395-0.244,0.588-0.112c0.193,0.131,0.244,0.395,0.112,0.588
				c-0.002,0.002-0.003,0.005-0.005,0.007L93.251,186.609z"/>
		</g>
		<path id="XMLID_670_" style="fill:#DEB800;" d="M97.977,220.175c0.757,0.107,1.14,0.952,1.356,1.685
			c1.104,3.744,1.409,7.722,0.887,11.591c-0.058,0.433-0.362,1.005-0.759,0.822c-0.13-0.485-0.33-0.95-0.592-1.378
			c-0.154,0.511-0.371,1.002-0.645,1.46c-0.091,0.152-0.24,0.321-0.41,0.272c-0.112-0.032-0.175-0.148-0.226-0.253
			c-0.171-0.352-0.342-0.705-0.514-1.057c0.067,0.476-0.39,0.942-0.869,0.912c-0.479-0.03-0.869-0.52-0.818-0.997
			c0.13,0.424-0.3,0.874-0.744,0.868c-0.444-0.006-0.825-0.357-0.999-0.766c-0.173-0.409-0.178-0.867-0.166-1.311
			c0.087-3.14,0.893-6.21,1.694-9.248c0.175-0.666,0.361-1.352,0.785-1.893c0.424-0.542,1.155-0.906,1.81-0.694"/>
	</g>
	<g id="XMLID_123_">
		<polygon id="XMLID_664_" style="fill:#ED6A8D;" points="274.224,119.026 274.224,141.688 314.078,141.688 321.635,149.423 
			321.635,141.688 321.635,119.026 		"/>
		<g id="XMLID_124_">
			<path id="XMLID_661_" style="fill:#FFFFFF;" d="M292.421,129.683c0,1.26-1.022,2.282-2.282,2.282
				c-1.26,0-2.282-1.022-2.282-2.282c0-1.26,1.022-2.282,2.282-2.282C291.4,127.401,292.421,128.423,292.421,129.683z"/>
			<path id="XMLID_158_" style="fill:#FFFFFF;" d="M299.268,129.683c0,1.26-1.022,2.282-2.282,2.282
				c-1.26,0-2.282-1.022-2.282-2.282c0-1.26,1.022-2.282,2.282-2.282C298.246,127.401,299.268,128.423,299.268,129.683z"/>
			<circle id="XMLID_157_" style="fill:#FFFFFF;" cx="304.484" cy="129.683" r="2.282"/>
		</g>
	</g>
	<text id="XMLID_121_" transform="matrix(1 0 0 1 94.4584 100.4422)"><tspan x="0" y="0" style="fill:#FCFAEB; font-family:'Antonio-Regular'; font-size:19.3819px;">ONLINE </tspan><tspan x="0" y="23" style="fill:#FCFAEB; font-family:'Antonio-Regular'; font-size:19.3819px;">CERTIFICATION</tspan></text>
	<g id="XMLID_1_">
		<path id="XMLID_117_" style="fill:#FFFFFF;" d="M215.57,147.282c7.158-0.382,7.635-9.162,7.635-9.162s0.477,8.781,7.635,9.162
			c-7.158,0.382-7.635,9.162-7.635,9.162S222.728,147.663,215.57,147.282z"/>
		<g id="XMLID_107_">
			<path id="XMLID_116_" style="fill:#FFFFFF;" d="M90.975,149.249c4.788-0.255,5.107-6.128,5.107-6.128s0.319,5.873,5.107,6.128
				c-4.787,0.255-5.107,6.128-5.107,6.128S95.763,149.504,90.975,149.249z"/>
			<path id="XMLID_111_" style="fill:#FFFFFF;" d="M80.532,161.947c3.572-0.191,3.81-4.572,3.81-4.572s0.238,4.381,3.81,4.572
				c-3.572,0.19-3.81,4.572-3.81,4.572S84.104,162.138,80.532,161.947z"/>
			<path id="XMLID_108_" style="fill:#FFFFFF;" d="M68.466,144.691c6.549-0.349,6.985-8.382,6.985-8.382s0.437,8.033,6.985,8.382
				c-6.548,0.349-6.985,8.382-6.985,8.382S75.014,145.04,68.466,144.691z"/>
		</g>
		<path id="XMLID_94_" style="fill:#FFFFFF;" d="M429.371,214.344c7.158-0.382,7.635-9.162,7.635-9.162s0.477,8.781,7.635,9.162
			c-7.158,0.382-7.635,9.162-7.635,9.162S436.529,214.726,429.371,214.344z"/>
		<path id="XMLID_93_" style="fill:#FFFFFF;" d="M444.319,199.863c3.572-0.19,3.81-4.572,3.81-4.572s0.238,4.381,3.81,4.572
			c-3.572,0.191-3.81,4.572-3.81,4.572S447.891,200.054,444.319,199.863z"/>
		<path id="XMLID_57_" style="fill:#FFFFFF;" d="M452.509,212.178c3.572-0.191,3.81-4.572,3.81-4.572s0.238,4.381,3.81,4.572
			c-3.572,0.19-3.81,4.572-3.81,4.572S456.081,212.368,452.509,212.178z"/>
		<g id="XMLID_96_">
			<path id="XMLID_105_" style="fill:#6571AF;" d="M338.575,92.498c4.788-0.255,5.107-6.128,5.107-6.128s0.319,5.873,5.107,6.128
				c-4.788,0.255-5.107,6.128-5.107,6.128S343.363,92.753,338.575,92.498z"/>
			<path id="XMLID_104_" style="fill:#6571AF;" d="M328.132,105.196c3.572-0.191,3.81-4.572,3.81-4.572s0.238,4.381,3.81,4.572
				c-3.572,0.19-3.81,4.572-3.81,4.572S331.704,105.387,328.132,105.196z"/>
			<path id="XMLID_97_" style="fill:#6571AF;" d="M316.066,87.94c6.548-0.349,6.985-8.382,6.985-8.382s0.437,8.033,6.985,8.382
				c-6.548,0.349-6.985,8.382-6.985,8.382S322.614,88.289,316.066,87.94z"/>
		</g>
	</g>
</g>
</svg>
