<svg width="253" height="1024" viewBox="0 0 253 1024" fill="none" xmlns="http://www.w3.org/2000/svg">
<g clip-path="url(#clip0_86_3)">
<rect width="253" height="1024" fill="url(#paint0_linear_86_3)"/>
<g opacity="0.75">
<g opacity="0.25">
<rect x="-29" y="361" width="140" height="140" rx="70" fill="#FFFDFD" fill-opacity="0.5"/>
<rect x="-29" y="361" width="140" height="140" rx="70" fill="#FFFDFD" fill-opacity="0.5"/>
</g>
<g opacity="0.2">
<rect x="-49" y="341" width="180" height="180" rx="90" fill="#FFFDFD" fill-opacity="0.5"/>
<rect x="-49" y="341" width="180" height="180" rx="90" fill="#FFFDFD" fill-opacity="0.5"/>
</g>
<g opacity="0.15">
<rect x="-69" y="321" width="220" height="220" rx="110" fill="#FFFDFD" fill-opacity="0.5"/>
<rect x="-69" y="321" width="220" height="220" rx="110" fill="#FFFDFD" fill-opacity="0.5"/>
</g>
<g opacity="0.1">
<rect x="-89" y="301" width="260" height="260" rx="130" fill="#FFFDFD" fill-opacity="0.5"/>
<rect x="-89" y="301" width="260" height="260" rx="130" fill="#FFFDFD" fill-opacity="0.5"/>
</g>
<g opacity="0.05">
<rect x="-109" y="281" width="300" height="300" rx="150" fill="#FFFDFD" fill-opacity="0.5"/>
<rect x="-109" y="281" width="300" height="300" rx="150" fill="#FFFDFD" fill-opacity="0.5"/>
<g opacity="0.35">
<rect x="122" y="521" width="8" height="8" rx="4" fill="white"/>
</g>
</g>
</g>
<rect x="191" y="168" width="68" height="68" rx="34" fill="url(#paint1_linear_86_3)"/>
<rect x="101" y="772" width="140" height="140" rx="70" fill="url(#paint2_linear_86_3)"/>
</g>
<defs>
<linearGradient id="paint0_linear_86_3" x1="126.5" y1="-7.61298e-07" x2="178.092" y2="700.094" gradientUnits="userSpaceOnUse">
<stop stop-color="#344497"/>
<stop offset="1" stop-color="#625BC5"/>
</linearGradient>
<linearGradient id="paint1_linear_86_3" x1="202.547" y1="156.453" x2="242.321" y2="227.019" gradientUnits="userSpaceOnUse">
<stop offset="-0.0001" stop-color="#FFFDFD" stop-opacity="0.36"/>
<stop stop-color="#6570AF" stop-opacity="0.846881"/>
<stop offset="0.95913" stop-color="#344497" stop-opacity="0.51"/>
</linearGradient>
<linearGradient id="paint2_linear_86_3" x1="124.774" y1="748.226" x2="206.66" y2="893.509" gradientUnits="userSpaceOnUse">
<stop stop-color="white" stop-opacity="0"/>
<stop offset="0.184" stop-color="#8F8BC9" stop-opacity="0.647999"/>
<stop offset="0.579" stop-color="#524BAB"/>
<stop offset="1" stop-color="#344497"/>
</linearGradient>
<clipPath id="clip0_86_3">
<rect width="253" height="1024" fill="white"/>
</clipPath>
</defs>
</svg>
